<svg width="18" height="18" viewBox="0 0 18 18" fill="none" xmlns="http://www.w3.org/2000/svg">
<path d="M12.7852 6.25391C9.90541 6.2541 7.57129 8.50528 7.57129 11.2822C7.57129 14.0592 9.90541 16.3104 12.7852 16.3105C13.1634 16.3105 13.5323 16.2701 13.8877 16.1963L14.7852 16.8496C15.1156 17.09 15.5791 16.854 15.5791 16.4453V15.5273C17.034 14.6352 18 13.068 18 11.2822C18 8.50516 15.6651 6.25391 12.7852 6.25391Z" fill="#0046FF"/>
<path d="M7.57129 1.05469C11.7524 1.05487 15.1416 4.3236 15.1416 8.35547C15.1415 12.3872 11.7524 15.6561 7.57129 15.6562C7.02251 15.6562 6.48731 15.5982 5.97168 15.4912L4.30957 16.7002C3.97909 16.9405 3.51465 16.7045 3.51465 16.2959V14.5176C1.4027 13.2223 8.28209e-05 10.9478 0 8.35547C0 4.32349 3.38997 1.05469 7.57129 1.05469Z" fill="#C8D6FB"/>
<path d="M7.57129 1.05469L7.57131 0.554688H7.57129V1.05469ZM15.1416 8.35547L15.6416 8.35548V8.35547H15.1416ZM7.57129 15.6562V16.1562H7.57131L7.57129 15.6562ZM5.97168 15.4912L6.07322 15.0016L5.85653 14.9567L5.67757 15.0869L5.97168 15.4912ZM4.30957 16.7002L4.60366 17.1046L4.60368 17.1045L4.30957 16.7002ZM3.51465 14.5176H4.01465V14.2377L3.77606 14.0914L3.51465 14.5176ZM0 8.35547H-0.5V8.35548L0 8.35547ZM7.57129 1.05469L7.57127 1.55469C11.4935 1.55486 14.6416 4.61667 14.6416 8.35547H15.1416H15.6416C15.6416 4.03052 12.0114 0.554879 7.57131 0.554688L7.57129 1.05469ZM15.1416 8.35547L14.6416 8.35545C14.6415 12.0942 11.4934 15.1561 7.57127 15.1562L7.57129 15.6562L7.57131 16.1562C12.0113 16.1561 15.6415 12.6803 15.6416 8.35548L15.1416 8.35547ZM7.57129 15.6562V15.1562C7.05789 15.1562 6.5567 15.1019 6.07322 15.0016L5.97168 15.4912L5.87014 15.9808C6.41792 16.0944 6.98714 16.1562 7.57129 16.1562V15.6562ZM5.97168 15.4912L5.67757 15.0869L4.01546 16.2958L4.30957 16.7002L4.60368 17.1045L6.26579 15.8956L5.97168 15.4912ZM4.30957 16.7002L4.01548 16.2958L4.01465 16.2959H3.51465H3.01465C3.01465 17.1141 3.94343 17.5847 4.60366 17.1046L4.30957 16.7002ZM3.51465 16.2959H4.01465V14.5176H3.51465H3.01465V16.2959H3.51465ZM3.51465 14.5176L3.77606 14.0914C1.80085 12.8799 0.500077 10.7608 0.5 8.35545L0 8.35547L-0.5 8.35548C-0.499911 11.1348 1.00455 13.5646 3.25324 14.9438L3.51465 14.5176ZM0 8.35547H0.5C0.5 4.61662 3.64881 1.55469 7.57129 1.55469V1.05469V0.554688C3.13113 0.554688 -0.5 4.03035 -0.5 8.35547H0Z" fill="#F2F6FF"/>
<path d="M3.78613 10.248H8.11239" stroke="#0046FF" stroke-width="1.5" stroke-linecap="round"/>
<path d="M3.78613 7.00391H11.6275" stroke="#0046FF" stroke-width="1.5" stroke-linecap="round"/>
</svg>
